<svg xmlns="http://www.w3.org/2000/svg" viewBox="0 0 234.55 22.16"><defs><style>.cls-1{fill:#fcfcfc;}</style></defs><title>Asset 1</title><g id="Layer_2" data-name="Layer 2"><g id="Layer_1-2" data-name="Layer 1"><path class="cls-1" d="M12.5,19.12H7.8L4.44,8.44l.14,13.31H0V0H5.83l4.32,13.55L14.47,0h5.83V21.76H15.72l.14-13.31Z"/><path class="cls-1" d="M23.29,21.76V0h4.64V21.76Z"/><path class="cls-1" d="M39.91,4.24V21.76H35.26V4.24H30V0H45.16V4.24Z"/><path class="cls-1" d="M51,17.32l-2.26,4.44H43.56l4.32-7.45-4-7h5l2,4.15,2-4.15h5l-4,7,4.32,7.46H53.22Z"/><path class="cls-1" d="M78.27,19.12h-4.7L70.21,8.44l.15,13.31H65.77V0H71.6l4.32,13.55L80.24,0h5.83V21.76H81.49l.15-13.31Z"/><path class="cls-1" d="M91.18.29A2.74,2.74,0,0,1,93.93,3a2.76,2.76,0,1,1-5.51,0A2.72,2.72,0,0,1,91.18.29Zm3.48,21.58a8,8,0,0,1-1.34.12c-2.49,0-4.47-1.28-4.47-4.09V7.25h4.61v10c0,.55.26.87,1.19.87v3.74Z"/><path class="cls-1" d="M103.91,18.16a7.87,7.87,0,0,0,3.22-.67v3.94a8.15,8.15,0,0,1-3.68.73c-5.37,0-7.34-2.73-7.34-7.66s2-7.66,7.34-7.66a8.15,8.15,0,0,1,3.68.73v3.94a7.87,7.87,0,0,0-3.22-.67c-1.91,0-3.22.9-3.22,3.66S102,18.16,103.91,18.16Z"/><path class="cls-1" d="M118.58,10.79a7.38,7.38,0,0,0-1.42-.12,5.41,5.41,0,0,0-3.07.84V21.76h-4.64V7.25h2.79l.58,1a6.62,6.62,0,0,1,4.47-1.45,3.9,3.9,0,0,1,1.3.2v3.74Z"/><path class="cls-1" d="M119.6,14.5c0-4.52,1.45-7.66,6.82-7.66s6.82,3.13,6.82,7.66-1.45,7.66-6.82,7.66S119.6,19,119.6,14.5Zm4.64,0c0,2.9.58,3.94,2.18,3.94s2.18-1,2.18-3.94-.58-3.94-2.18-3.94S124.24,11.6,124.24,14.5Z"/><path class="cls-1" d="M147.79,19.12h-4.7L139.72,8.44l.15,13.31h-4.58V0h5.83l4.32,13.55L149.76,0h5.83V21.76H151l.15-13.31Z"/><path class="cls-1" d="M165.71,11.6c0-.67-.46-1-1.71-1a14.61,14.61,0,0,0-5.22,1.1V7.8a14.92,14.92,0,0,1,5.22-1c5.22,0,6.21,2.23,6.21,5.48v9.43h-2.79l-.64-1.1a6.34,6.34,0,0,1-4.26,1.51c-3.68,0-4.93-2.44-4.93-4.61,0-3.92,2.87-4.5,5.48-4.76l2.64-.26V11.6Zm-1.95,3.71c-1.3.17-1.83.81-1.83,1.94A1.59,1.59,0,0,0,163.62,19a3,3,0,0,0,2.09-.7V15.05Z"/><path class="cls-1" d="M183.51,11.49a12.53,12.53,0,0,0-4.67-.93c-1.3,0-2,.29-2,1s.49.93,1.45,1c4.58.41,5.86,1.62,5.86,4.64,0,2.78-1.65,4.93-6.55,4.93a13.14,13.14,0,0,1-5.28-.93V17.35a14.08,14.08,0,0,0,5.16,1.1c1.48,0,2.15-.29,2.15-1s-.49-.93-1.45-1c-4.58-.41-5.86-1.62-5.86-4.64s1.91-4.93,6.38-4.93a11.56,11.56,0,0,1,4.85.75v3.89Z"/><path class="cls-1" d="M195.46,21.87a11.12,11.12,0,0,1-2.38.29c-4.06,0-5.6-1.71-5.6-5.14V11.11h-2.35V8l2.35-.64v-3l4.64-1.25V7.25h3.6v3.86h-3.6v5.54c0,1.13.44,1.77,1.91,1.77a6.4,6.4,0,0,0,1.42-.17Z"/><path class="cls-1" d="M201.61,16c-.12,1.88.87,2.44,3.13,2.44a11,11,0,0,0,4.84-1v3.63a14.92,14.92,0,0,1-5.45,1c-4.79,0-7.11-2.44-7.11-7.66s2.29-7.66,6.79-7.66c6.21,0,6.64,4.64,6.27,9.19h-8.47Zm0-2.84h4.12c.26-1.59-.09-2.87-1.86-2.87C202.3,10.33,201.61,11.37,201.61,13.2Z"/><path class="cls-1" d="M221.5,10.79a7.39,7.39,0,0,0-1.42-.12,5.41,5.41,0,0,0-3.07.84V21.76h-4.64V7.25h2.78l.58,1a6.62,6.62,0,0,1,4.47-1.45,3.91,3.91,0,0,1,1.31.2Z"/><path class="cls-1" d="M233.94,11.49a12.53,12.53,0,0,0-4.67-.93c-1.3,0-2,.29-2,1s.49.93,1.45,1c4.58.41,5.86,1.62,5.86,4.64,0,2.78-1.65,4.93-6.55,4.93a13.14,13.14,0,0,1-5.28-.93V17.35a14.08,14.08,0,0,0,5.16,1.1c1.48,0,2.15-.29,2.15-1s-.49-.93-1.45-1c-4.58-.41-5.86-1.62-5.86-4.64s1.91-4.93,6.38-4.93a11.56,11.56,0,0,1,4.85.75v3.89Z"/></g></g></svg>