<?xml version="1.0" encoding="utf-8"?>
<!-- Generator: Adobe Illustrator 20.0.0, SVG Export Plug-In . SVG Version: 6.00 Build 0)  -->
<svg version="1.1" id="Layer_1" xmlns="http://www.w3.org/2000/svg" xmlns:xlink="http://www.w3.org/1999/xlink" x="0px" y="0px"
	 viewBox="0 0 339.4 54" style="enable-background:new 0 0 339.4 54;" xml:space="preserve">
<style type="text/css">
	.st0{fill:#FFFFFF;}
</style>
<g>
	<path class="st0" d="M117.3,35.4h-4.7l-3.4-10.7l0.1,13.3h-4.6V16.3h5.8l4.3,13.5l4.3-13.5h5.8V38h-4.6l0.1-13.3L117.3,35.4z"/>
	<path class="st0" d="M128.1,38V16.3h4.6V38C132.8,38,128.1,38,128.1,38z"/>
	<path class="st0" d="M144.7,20.5V38h-4.6V20.5h-5.2v-4.2H150v4.2H144.7z"/>
	<path class="st0" d="M155.8,33.6l-2.3,4.4h-5.1l4.3-7.5l-4-7h5l2,4.1l2-4.1h5l-4,7L163,38h-5.1L155.8,33.6z"/>
	<path class="st0" d="M183.1,35.4h-4.7L175,24.7l0.1,13.3h-4.6V16.3h5.8l4.3,13.5l4.3-13.5h5.8V38h-4.6l0.1-13.3L183.1,35.4z"/>
	<path class="st0" d="M196,16.5c1.5,0,2.8,1.2,2.8,2.8c0,1.6-1.2,2.8-2.8,2.8s-2.8-1.2-2.8-2.8C193.3,17.8,194.4,16.5,196,16.5z
		 M199.5,38.1c0,0-0.6,0.1-1.3,0.1c-2.5,0-4.5-1.3-4.5-4.1V23.5h4.6v10c0,0.6,0.3,0.9,1.2,0.9V38.1L199.5,38.1z"/>
	<path class="st0" d="M208.7,34.4c1.3,0,2.3-0.3,3.2-0.7v3.9c-1,0.5-2.1,0.7-3.7,0.7c-5.4,0-7.3-2.7-7.3-7.7s2-7.7,7.3-7.7
		c1.6,0,2.7,0.3,3.7,0.7v3.9c-1-0.4-1.9-0.7-3.2-0.7c-1.9,0-3.2,0.9-3.2,3.7S206.8,34.4,208.7,34.4z"/>
	<path class="st0" d="M223.4,27c-0.2-0.1-0.8-0.1-1.4-0.1c-1.4,0-2.7,0.5-3.1,0.8V38h-4.6V23.5h2.8l0.6,1c0.7-0.7,2.3-1.5,4.5-1.5
		c0.6,0,1.1,0.1,1.3,0.2L223.4,27L223.4,27z"/>
	<path class="st0" d="M224.4,30.8c0-4.5,1.4-7.7,6.8-7.7c5.4,0,6.8,3.1,6.8,7.7s-1.4,7.7-6.8,7.7C225.9,38.4,224.4,35.3,224.4,30.8z
		 M229.1,30.8c0,2.9,0.6,3.9,2.2,3.9s2.2-1,2.2-3.9s-0.6-3.9-2.2-3.9S229.1,27.9,229.1,30.8z"/>
	<path class="st0" d="M252.6,35.4h-4.7l-3.4-10.7l0.1,13.3H240V16.3h5.8l4.3,13.5l4.3-13.5h5.8V38h-4.6l0.1-13.3L252.6,35.4z"/>
	<path class="st0" d="M270.5,27.9c0-0.7-0.5-1-1.7-1c-1.8,0-3.9,0.6-5.2,1.1v-3.9c1-0.4,3.2-1,5.2-1c5.2,0,6.2,2.2,6.2,5.5V38h-2.8
		l-0.6-1.1c-1,0.9-2.5,1.5-4.3,1.5c-3.7,0-4.9-2.4-4.9-4.6c0-3.9,2.9-4.5,5.5-4.8l2.6-0.3L270.5,27.9L270.5,27.9z M268.6,31.6
		c-1.3,0.2-1.8,0.8-1.8,1.9s0.7,1.7,1.7,1.7c0.8,0,1.6-0.2,2.1-0.7v-3.2L268.6,31.6z"/>
	<path class="st0" d="M288.3,27.7c-1.3-0.6-3-0.9-4.7-0.9c-1.3,0-2,0.3-2,1c0,0.8,0.5,0.9,1.4,1c4.6,0.4,5.9,1.6,5.9,4.6
		c0,2.8-1.7,4.9-6.6,4.9c-2.7,0-4.2-0.5-5.3-0.9v-3.9c1.4,0.6,3.3,1.1,5.2,1.1c1.5,0,2.1-0.3,2.1-1c0-0.8-0.5-0.9-1.5-1
		c-4.6-0.4-5.9-1.6-5.9-4.6s1.9-4.9,6.4-4.9c2.6,0,3.9,0.3,4.8,0.8L288.3,27.7L288.3,27.7z"/>
	<path class="st0" d="M300.3,38.1c-0.6,0.2-1.7,0.3-2.4,0.3c-4.1,0-5.6-1.7-5.6-5.1v-5.9H290v-3.1l2.3-0.6v-3l4.6-1.2v4.1h3.6v3.9
		H297V33c0,1.1,0.4,1.8,1.9,1.8c0.6,0,1.2-0.1,1.4-0.2V38.1z"/>
	<path class="st0" d="M306.4,32.3c-0.1,1.9,0.9,2.4,3.1,2.4s3.8-0.4,4.8-1v3.6c-1.7,0.7-3.7,1-5.5,1c-4.8,0-7.1-2.4-7.1-7.7
		c0-5.2,2.3-7.7,6.8-7.7c6.2,0,6.6,4.6,6.3,9.2L306.4,32.3L306.4,32.3z M306.4,29.5h4.1c0.3-1.6-0.1-2.9-1.9-2.9
		C307.1,26.6,306.4,27.6,306.4,29.5z"/>
	<path class="st0" d="M326.3,27c-0.2-0.1-0.8-0.1-1.4-0.1c-1.4,0-2.7,0.5-3.1,0.8V38h-4.6V23.5h2.8l0.6,1c0.7-0.7,2.3-1.5,4.5-1.5
		c0.6,0,1.1,0.1,1.3,0.2L326.3,27L326.3,27z"/>
	<path class="st0" d="M338.8,27.7c-1.3-0.6-3-0.9-4.7-0.9c-1.3,0-2,0.3-2,1c0,0.8,0.5,0.9,1.4,1c4.6,0.4,5.9,1.6,5.9,4.6
		c0,2.8-1.7,4.9-6.6,4.9c-2.7,0-4.2-0.5-5.3-0.9v-3.9c1.4,0.6,3.3,1.1,5.2,1.1c1.5,0,2.1-0.3,2.1-1c0-0.8-0.5-0.9-1.5-1
		c-4.6-0.4-5.9-1.6-5.9-4.6s1.9-4.9,6.4-4.9c2.6,0,3.9,0.3,4.8,0.8L338.8,27.7L338.8,27.7z"/>
</g>
</svg>
