<?xml version="1.0" encoding="utf-8"?>
<!-- Generator: Adobe Illustrator 20.0.0, SVG Export Plug-In . SVG Version: 6.00 Build 0)  -->
<svg version="1.1" id="Layer_1" xmlns="http://www.w3.org/2000/svg" xmlns:xlink="http://www.w3.org/1999/xlink" x="0px" y="0px"
	 viewBox="0 0 512 512" style="enable-background:new 0 0 512 512;" xml:space="preserve">
<style type="text/css">
	.st0{fill:#CC223F;}
</style>
<path id="magnifier-2-icon" class="st0" d="M460.4,421.6L353.8,315.1c20-27.6,31.9-61.4,31.9-98c0-92.1-74.9-167-167-167
	c-92.1,0-167,74.9-167,167c0,92.1,74.9,167,167,167c34.9,0,67.4-10.8,94.2-29.2L419.9,462L460.4,421.6z M100.6,217
	c0-65.1,53-118.1,118.1-118.1c65.1,0,118.1,53,118.1,118.1c0,65.1-53,118.1-118.1,118.1C153.6,335.1,100.6,282.1,100.6,217z"/>
</svg>
